<?xml version="1.0"?>
<svg xmlns="http://www.w3.org/2000/svg" enable-background="new 0 0 24 24" height="512px" viewBox="0 0 24 24" width="512px" class=""><g><path d="m16 10h-8c-.552 0-1-.448-1-1s.448-1 1-1h8c.552 0 1 .448 1 1s-.448 1-1 1z" data-original="#000000" class="active-path" data-old_color="#000000" fill="#FFFFFF"/><path d="m12 6h-4c-.552 0-1-.448-1-1s.448-1 1-1h4c.552 0 1 .448 1 1s-.448 1-1 1z" data-original="#000000" class="active-path" data-old_color="#000000" fill="#FFFFFF"/><path d="m4 14.5c-.552 0-1-.448-1-1v-10.5c0-1.654 1.346-3 3-3h12c1.654 0 3 1.346 3 3v10.5c0 .552-.448 1-1 1s-1-.448-1-1v-10.5c0-.551-.449-1-1-1h-12c-.551 0-1 .449-1 1v10.5c0 .552-.448 1-1 1z" data-original="#000000" class="active-path" data-old_color="#000000" fill="#FFFFFF"/><path d="m22.437 6.554-2.437-1.329v2.278l1.479.807c.321.175.521.511.521.878v1.249l-9.414 4.917c-.361.187-.811.187-1.169.002l-9.417-4.919v-1.249c0-.367.2-.703.521-.878l1.479-.807v-2.278l-2.436 1.329c-.965.525-1.564 1.534-1.564 2.634v10.812c0 1.654 1.346 3 3 3h18c1.654 0 3-1.346 3-3v-10.812c0-1.1-.599-2.109-1.563-2.634z" data-original="#000000" class="active-path" data-old_color="#000000" fill="#FFFFFF"/></g> </svg>
