<svg xmlns="http://www.w3.org/2000/svg" width="1108.221" height="1059.973" viewBox="0 0 1108.221 1059.973"><g transform="translate(-4.361 -8.7)"><path d="M573.444,1029.752v-1.166h-4.082c-6.415.583-13.413,1.166-19.827,1.75H536.705c-15.162,0-29.741,0-44.9-1.166a71.468,71.468,0,0,1-11.08-1.166c-5.832-.583-12.246-1.75-18.078-2.333-9.33-1.166-18.078-2.916-26.825-4.665-3.5-.583-6.415-1.166-9.913-1.75l-10.5-1.749c-3.5-.583-6.415-1.75-9.914-.583,55.4,13.413,111.382,18.078,167.948,12.829M214.8,929.45l-.583.583,2.333,2.333c5.248,4.082,10.5,7.581,15.745,11.08a483.964,483.964,0,0,0,47.235,28.575c12.246,6.415,24.492,12.246,37.322,18.078,4.082,1.75,7.581,2.916,11.663,4.665h1.749c-2.916-1.75-5.831-2.916-8.747-4.665A405.183,405.183,0,0,1,283.033,969.1c-.583-.583-1.749-1.75-2.916-1.166-2.333.583-4.082-1.166-5.832-1.75-3.5-1.75-7-3.5-9.914-5.248-9.914-5.832-19.827-12.246-29.741-18.078-7-4.665-13.413-8.747-19.827-13.412m440.864,100.885v-.583h-1.75c-3.5.583-6.415,1.166-9.914,1.75-15.745,3.5-32.073,7-47.819,8.747l-27.991,3.5c-9.331.583-19.244,1.75-28.574,1.75a477.818,477.818,0,0,1-50.151-.583c-3.5,0-7-.583-10.5-.583-3.5-.583-7-.583-11.08-1.166-7-1.167-14.579-2.333-21.577-3.5-7.581-1.166-15.162-2.333-22.16-4.082a119.475,119.475,0,0,1-14-2.916c.583.583.583,1.166,1.166,1.166,7.581,1.75,14.579,4.082,22.16,5.831,5.832,1.166,12.246,1.75,18.661,2.916s12.829,1.749,19.244,2.333c4.665.583,8.747.583,13.412,1.166,8.164.583,15.745,1.166,23.909,1.75,15.162.583,30.324,0,45.486-.583,5.248-.583,10.5-.583,15.745-1.166a64.26,64.26,0,0,0,10.5-1.166c5.832-.583,11.663-1.749,17.495-2.333a126.341,126.341,0,0,0,14.579-2.333c8.747-1.75,17.495-3.5,26.825-5.248a79.538,79.538,0,0,1,16.329-4.665M290.614,72.214a.571.571,0,0,0,.583.583c.583,0,1.166-.583,1.749-.583a452.252,452.252,0,0,1,61.814-27.408c12.246-4.082,24.492-8.747,37.322-12.246,21.577-5.832,43.153-11.08,65.313-13.413l26.242-3.5c7-.583,14.579-1.166,21.577-1.749,7.581-.583,14.579-1.166,22.16-.583,9.33,0,19.244-.583,28.575.583,5.832.583,11.663.583,18.078.583,8.747.583,18.078,1.749,26.825,2.916a28.392,28.392,0,0,0,7,.583c1.166,0,2.916.583,4.665-.583-2.332-.583-3.5-1.749-5.248-1.749-5.832-.583-11.08-1.166-16.911-1.749-7.581-.583-15.745-1.749-23.326-2.333-7-.583-14-1.166-21.577-1.166-14,0-28.574.583-42.57.583h-1.166c-5.832.583-11.08,1.166-16.911,1.749-4.082.583-8.164.583-12.246,1.166l-20.994,3.5c-11.663,2.333-23.326,4.082-34.406,7a425.635,425.635,0,0,0-53.067,15.745c-12.246,4.665-25.076,9.33-36.739,14.579s-22.16,10.5-33.823,16.328c-1.166.583-1.749,1.166-2.916,1.166M122.083,864.72A12.734,12.734,0,0,1,125,866.469l8.164,8.164c11.08,11.08,22.16,21.577,33.24,32.073,5.248,4.665,11.08,9.331,16.328,14,4.082,2.916,7.581,6.415,11.663,9.33a1.806,1.806,0,0,1,1.166.583c-.583-1.749-1.749-2.333-2.916-3.5l-3.5-3.5c-1.166-1.166-1.75-2.333-3.5-3.5,1.749,0,2.333.583,3.5.583a8.288,8.288,0,0,1-1.166-3.5c.583-.583.583-.583,1.166-.583a10.812,10.812,0,0,1,4.082,1.166c2.916,1.167,5.248,2.916,8.164,4.082-.583-5.248-4.082-8.164-6.415-11.663,10.5,8.164,20.994,15.745,32.073,23.909,10.5,8.164,22.16,15.162,33.823,21.577l-1.75-1.75c-9.33-5.831-18.078-11.663-27.408-18.078-7.581-5.248-15.162-11.08-22.743-16.911S193.811,907.29,187.4,900.292c-2.333-2.916-4.665-5.831-5.248-9.33v-2.916c2.333,0,4.082,1.166,5.832,2.333,9.33,6.415,18.078,12.829,27.408,19.244a12.2,12.2,0,0,1,3.5,2.333,5.258,5.258,0,0,0-.583-2.916l3.5,1.75c6.415,3.5,12.829,7.581,19.244,10.5,11.663,5.832,23.326,12.246,34.989,18.078a294.3,294.3,0,0,0,37.322,15.162c8.747,2.916,17.495,6.415,26.242,9.33,23.909,7.581,47.819,15.162,72.311,20.994,11.08,2.332,22.743,4.665,34.406,7a8.087,8.087,0,0,0,5.248,0c-2.916-.583-5.832-1.749-8.164-2.332l-19.244-7a23.635,23.635,0,0,1-5.248-2.916c-1.166-.583-1.749-1.749-1.166-3.5,1.166,0,2.916-.583,4.665-.583a112.37,112.37,0,0,1,14,.583,71.452,71.452,0,0,1,11.08,1.166h1.75c5.831.584,11.663.584,17.495,1.166l19.244,1.75h1.166c20.41,1.166,40.821,1.166,61.231.583,6.415,0,12.829-1.166,19.827-1.75h3.5c7.581-.583,14.579-1.75,22.16-2.333a157.138,157.138,0,0,0,16.328-2.332,116.473,116.473,0,0,0,15.162-2.916c11.663-2.916,23.91-5.248,35.573-8.747,7.581-1.749,14.579-4.665,22.16-7,5.248-1.749,11.08-3.5,16.328-5.831,8.164-2.916,15.745-6.415,23.91-9.914,6.415-2.916,12.246-5.832,18.078-8.747q20.119-10.5,40.237-22.743c12.829-8.164,25.076-16.911,36.739-25.659,6.415-4.665,11.663-9.914,18.078-14.579,12.246-9.914,23.326-20.993,33.823-32.073,6.415-7,12.829-14.579,19.244-21.577,8.747-9.913,16.328-20.41,23.909-30.907a331.545,331.545,0,0,0,19.244-30.324c8.164-14.579,16.329-29.158,22.743-44.32a451.508,451.508,0,0,0,20.994-55.4q6.123-20.119,10.5-40.237c1.749-8.164,3.5-16.328,4.665-25.076,1.166-5.832,1.166-11.08,2.333-16.911.583-4.665,1.166-8.747,1.749-13.413.583-5.831.583-12.246,1.167-18.078a211.009,211.009,0,0,0,.583-33.24c0-8.164-1.166-16.328-1.75-24.492a104.746,104.746,0,0,0-1.166-12.829c-.583-10.5-2.333-20.993-4.082-31.49a384.686,384.686,0,0,0-9.914-44.9,330.886,330.886,0,0,0-12.83-38.488,565.665,565.665,0,0,0-23.909-54.233c-9.331-17.495-19.244-34.406-30.907-50.151-5.832-7.581-11.08-15.162-16.911-22.743a166.067,166.067,0,0,0-13.413-15.162c-7.581-8.164-14.579-16.328-22.16-23.909s-15.162-14.579-23.326-21.577A302.868,302.868,0,0,0,810.2,145.692,402.12,402.12,0,0,0,773.466,121.2a336.124,336.124,0,0,0-40.238-22.16c-9.914-4.665-19.827-9.33-30.324-13.413-11.663-4.665-23.326-8.747-35.572-12.829a380.759,380.759,0,0,0-44.32-11.663c-6.415-1.166-12.829-2.916-19.827-4.082l-14-1.749c-4.082-.583-8.747-1.166-12.829-1.749-3.5-.583-7-.583-10.5-1.166a70.574,70.574,0,0,0-11.08-.583c-14-.583-28.575-.583-42.57-.583-7.581,0-15.162,1.166-23.326,1.749-4.665.583-9.33.583-14,1.166a58.144,58.144,0,0,0-9.33,1.166c-15.745,2.333-31.49,4.665-47.236,8.164-14.579,3.5-28.575,7-43.153,11.663-15.162,5.248-30.324,10.5-44.32,17.495-11.08,5.248-22.16,10.5-33.24,16.328a380.025,380.025,0,0,0-41.987,25.076C242.8,142.193,230.55,150.94,218.3,160.271c-6.415,4.665-12.246,10.5-18.661,15.745a372.166,372.166,0,0,0-30.907,29.741c-6.415,7-12.829,14-18.661,21.577-6.415,7.581-12.829,15.162-18.661,23.326a364.749,364.749,0,0,0-23.326,34.989c-6.415,9.914-11.663,20.41-17.495,30.324,0,.583-.583.583-1.749,1.166a58.857,58.857,0,0,1,4.082-8.747c3.5-7,7-13.412,10.5-19.827a374.142,374.142,0,0,1,23.909-37.9c5.248-7,10.5-14.579,15.745-21.577,3.5-4.665,7-8.747,10.5-12.829,7-7.581,14-14.579,20.41-22.16,7-8.747,15.745-15.745,23.909-23.326,12.246-11.08,25.076-21.577,37.9-31.49,13.413-9.914,27.408-19.827,41.987-27.991,8.747-5.248,18.078-10.5,26.825-15.162,8.164-4.082,16.911-8.164,25.076-11.663,9.33-4.082,19.244-8.164,29.158-12.246,9.331-3.5,18.661-6.415,27.991-9.33A361.867,361.867,0,0,1,436.4,50.638l27.992-5.248c4.082-.583,7.581-.583,11.663-1.166,4.665-.583,8.747-1.166,13.413-1.749,5.248-.583,10.5-.583,16.328-1.166,7-.583,14-.583,20.993-.583,11.08,0,21.577.583,32.657,1.166,8.164.583,16.328,1.749,24.493,2.333,5.832.583,12.246,1.166,18.078,1.749s11.663,1.749,17.495,2.916c7.581,1.166,14.579,2.916,22.16,4.082A101.559,101.559,0,0,1,654.5,55.886c1.167.583,2.916.583,4.082,1.166v-.583c-5.832-1.749-10.5-6.415-16.912-7s-12.829-2.916-19.244-4.665c-7.581-1.749-15.745-2.916-23.326-4.082a157.2,157.2,0,0,0-16.328-2.333l-20.994-1.749-20.993-1.749H508.714a120.592,120.592,0,0,0-20.41,1.749h-2.333c-7,0-13.413,1.166-19.827,1.749-10.5,1.166-20.41,3.5-30.907,5.248-20.41,4.082-39.655,9.914-59.482,16.911-12.829,4.665-25.659,9.33-37.905,15.162-7,3.5-13.412,6.415-20.41,9.914a407.8,407.8,0,0,0-40.821,23.326c-13.413,8.747-26.242,17.495-39.654,25.659-5.248,2.916-10.5,7-15.162,9.914-1.749,1.166-3.5,1.749-5.248,2.916-3.5,2.916-7.581,5.832-10.5,8.747-12.829,12.246-25.659,24.492-38.488,37.322a271.1,271.1,0,0,0-28.575,34.406c-11.663,15.745-22.743,31.49-32.657,48.4-4.665,8.164-9.33,16.328-14,25.076a382.5,382.5,0,0,0-20.41,44.32,393.18,393.18,0,0,0-17.495,50.151c-2.916,9.914-5.248,19.827-7.581,29.741-2.333,10.5-4.082,20.993-6.415,31.49a207.7,207.7,0,0,0-3.5,25.659,25.663,25.663,0,0,1-1.166,5.832c0,.583-.583.583-1.749,1.749v-8.164c.583-5.832,1.749-12.246,2.333-18.078,1.166-7,1.749-13.413,2.916-20.41,1.166-7.581,2.916-14.579,4.665-21.577A451.667,451.667,0,0,1,59.685,367.29c4.665-12.829,9.33-25.076,14.579-37.322,2.916-5.832,5.248-11.663,7.581-16.911l12.246-22.743c4.665-8.164,9.33-16.328,14.579-24.492s10.5-16.912,16.328-24.493c7.581-10.5,15.745-20.41,23.326-30.324a101.365,101.365,0,0,1,7.581-8.747c5.248-5.248,10.5-11.08,15.162-16.328a2.143,2.143,0,0,0,.583-1.749c-9.33,7.581-16.911,16.911-24.493,25.659C139.577,219.169,132,228.5,125,237.83c-7,9.914-14,19.827-20.41,29.741s-12.246,20.41-18.078,30.907-11.08,21.577-15.745,32.074c-4.665,11.08-9.33,22.16-13.413,33.24s-7.581,22.743-11.08,34.406-6.415,23.326-8.747,34.989S32.86,457.1,31.694,468.759s-2.333,23.909-2.916,35.572c-1.166,11.663.583,23.909-1.166,35.572H26.446V515.411c0-6.415,1.166-12.829,1.749-19.827v-2.916l1.749-15.745c.583-5.248,1.166-9.914,1.749-15.162l1.749-12.246c1.166-7.581,2.916-14.579,4.082-21.577,2.333-9.331,4.082-18.661,6.415-27.408,2.916-11.08,6.415-21.577,10.5-32.657,4.665-12.246,9.914-24.492,14.579-36.739,2.916-6.415,5.832-13.413,8.747-19.244,5.248-10.5,11.08-20.993,16.911-30.907,5.248-8.747,9.914-16.911,15.745-25.076,8.747-12.246,17.495-24.492,26.825-36.156,7-8.747,14.579-16.328,21.577-24.493a239.472,239.472,0,0,1,16.912-17.495c8.747-8.164,17.495-16.328,26.825-23.909,8.747-7,16.911-14.579,26.242-21.577,8.747-6.415,18.078-12.829,27.408-19.244,7-4.665,14.579-9.33,21.577-14,.583-.583,1.166-.583,1.166-1.749-2.916,1.749-6.415,3.5-9.33,5.248-11.663,7-22.743,14-34.406,21.577-11.08,7.581-21.577,15.162-32.073,23.326-6.415,5.248-12.829,11.08-19.244,16.328-8.747,7.581-16.911,15.162-25.076,23.326-6.415,6.415-12.246,14-18.078,20.41A319.164,319.164,0,0,0,116.835,239c-7.581,10.5-14,21.577-20.994,32.073-3.5,5.832-7,12.246-10.5,18.078-2.333,4.665-4.665,9.33-7.581,14.579,1.166-8.747,29.741-57.732,43.737-76.393a477.509,477.509,0,0,1,57.149-66.48c20.994-20.41,43.737-38.488,67.646-55.4-3.5,1.166-6.415,3.5-9.33,5.248-9.33,7-19.244,14-28.575,21.577-4.665,4.082-9.33,8.164-14.579,12.246-11.663,9.33-22.16,19.827-32.657,30.907-7.581,8.164-14.579,16.328-22.16,24.492-6.415,7.581-12.829,15.162-18.661,23.326-4.082,5.248-8.164,11.08-12.246,16.911-6.415,9.33-12.246,19.244-18.661,28.575-2.916,4.665-5.832,9.33-8.164,14-5.248,10.5-11.08,20.41-15.745,30.907-5.832,12.829-11.08,25.659-16.328,38.488-4.665,12.246-8.164,24.492-12.246,36.156a131.234,131.234,0,0,0-4.665,14c-1.749,6.415-3.5,13.413-4.665,19.827-1.749,8.747-3.5,18.078-5.248,26.825-.583,5.248-1.166,9.914-1.749,15.162-1.166,7.581-1.749,15.745-2.333,23.326v1.166c-.583,9.331-.583,18.661-1.166,27.408,0,5.248-.583,10.5-.583,16.328,0,9.331.583,18.078.583,27.408.583,7.581,1.166,15.162,1.749,23.326,1.166,8.164,1.749,16.911,3.5,25.076,1.749,12.246,4.082,23.909,5.832,36.155a30.808,30.808,0,0,1,.583,7.581c-2.333,0-2.916-1.749-2.916-3.5l-3.5-12.246c-1.166-2.916-1.749-5.831-2.916-8.747-.583-2.916-1.749-5.248-2.333-8.164l-1.749-15.745c-.583-7-1.749-13.413-2.333-20.41-.583-3.5-.583-7-1.166-11.08-.583-4.665-.583-8.747-1.166-13.412a364.9,364.9,0,0,1-.583-43.737c0-7,1.166-14.579,1.749-21.577a71.45,71.45,0,0,1,1.166-11.08c.583-3.5.583-7.581,1.166-11.08.583-5.248,1.749-11.08,2.333-16.328,1.749-9.914,3.5-19.244,5.248-29.158a487.743,487.743,0,0,1,15.745-57.149c5.248-14.579,10.5-29.158,16.911-43.153,5.248-11.08,9.914-22.16,15.745-33.24,5.248-10.5,11.663-20.41,17.495-30.324,4.082-6.415,7.581-12.829,12.246-18.661C105.755,234.331,111.586,226.167,118,218c6.415-8.747,13.413-16.912,20.41-25.076,11.663-14.579,25.076-27.408,38.488-40.238a347.241,347.241,0,0,1,31.49-26.825c8.747-6.415,16.911-12.829,25.659-19.244a466.633,466.633,0,0,1,40.238-25.076c8.164-4.665,16.911-9.33,25.076-14,16.911-8.164,34.406-15.745,51.9-22.16a490.176,490.176,0,0,1,61.231-18.661c11.08-2.333,22.743-5.248,34.406-7,9.33-1.166,18.661-2.916,27.408-4.082,4.665-.583,8.747-.583,13.413-1.166,5.832-.583,11.663-1.166,18.078-1.749h47.235c7.581,0,15.162,1.166,23.326,1.749,4.082.583,8.164.583,12.246,1.166a64.254,64.254,0,0,0,10.5,1.166c2.916.583,6.415.583,9.33,1.166l22.743,3.5c12.246,2.916,25.076,5.832,37.322,8.747,4.082,1.166,8.164,2.333,12.829,3.5,9.33,2.916,18.078,5.832,27.408,8.747,7,2.333,14,5.248,20.993,7.581a388.761,388.761,0,0,1,38.488,18.078Q791.835,80.378,813.7,94.374c13.412,8.747,26.825,17.495,39.071,27.991l20.994,17.495c7.581,5.832,14,12.829,20.994,19.244,7,7,14,13.413,20.41,20.994,7,7.581,12.829,15.162,19.244,22.743A228.506,228.506,0,0,1,949,221.5c1.166,1.749,2.332,2.916,3.5,4.665.583,1.166,1.749,1.749,2.916,2.916-30.324-43.737-67.063-81.641-109.05-114.3S757.721,56.469,708.153,37.225c4.082-.583,7.581,1.166,11.08,2.333A463.1,463.1,0,0,1,776.382,65.8c11.08,5.832,22.16,12.829,33.24,19.244a349.4,349.4,0,0,1,38.488,26.825c7.581,5.832,15.162,12.246,22.743,18.661,8.164,6.415,15.162,13.413,22.743,20.994a75.083,75.083,0,0,1,9.914,9.33c7.581,8.164,15.162,16.328,22.743,25.076,8.164,9.914,16.911,19.827,24.493,30.324,8.747,11.663,16.911,23.909,24.492,36.156,11.08,18.078,20.994,36.156,30.324,55.4,5.831,12.246,10.5,25.076,15.745,37.322,3.5,8.747,6.415,18.078,9.331,26.825a360.071,360.071,0,0,1,11.08,43.153c2.332,11.08,6.415,21.577,8.164,32.657,1.75,9.914,4.082,19.244,5.248,29.158.584,5.831,1.75,11.663,2.333,17.495.583,3.5.583,7.581,1.167,11.08.583,12.829.583,25.076,1.166,37.9v22.16c0,7-1.166,13.413-1.749,20.41a64.25,64.25,0,0,1-1.167,10.5c-1.749,16.911-4.082,33.823-8.164,50.734a493.768,493.768,0,0,1-14.579,50.151c-4.665,13.412-9.33,26.825-15.745,39.071-9.914,18.078-18.661,37.322-29.741,54.233-7.581,11.08-14.579,22.743-21.577,33.823-7.581,12.246-15.745,23.326-23.91,34.406-4.665,5.832-9.913,11.663-14.579,17.495-10.5,12.829-22.16,23.909-33.823,34.989-7.581,7-15.162,14-22.743,20.41s-15.162,12.829-23.326,18.661c-7.581,5.831-15.162,11.08-22.743,16.328-12.829,8.747-26.242,17.495-39.655,24.492l-12.246,7c-.583-.583-1.166-.583-1.749-1.167-4.082,2.333-7.581,4.082-11.663,6.415-7.581,4.082-15.162,8.164-23.909,11.08-5.248,1.75-10.5,4.666-16.328,7-10.5,4.082-20.994,8.164-31.49,11.08-2.916.583-5.248,1.75-8.164,2.333a385.478,385.478,0,0,1-44.32,12.829c-10.5,2.333-20.994,4.665-31.49,6.415-7,1.167-14.579,1.75-21.576,2.916-7.581,1.167-14.579,1.75-22.16,2.333h-1.166a436.277,436.277,0,0,1-47.819.583c-9.33,0-18.661,0-27.408-1.167-10.5-.583-20.994-1.166-31.49-2.916-9.914-1.75-19.827-2.333-29.158-4.082-11.663-1.75-22.743-4.082-34.406-6.415-17.495-3.5-34.406-8.747-51.317-14.579a375.169,375.169,0,0,1-35.572-14,390.96,390.96,0,0,1-40.821-21.577c-7.581-4.665-15.162-8.747-22.743-13.413-9.914-6.415-19.827-13.412-29.741-20.41q-14-10.5-27.991-22.743c-8.747-7.581-16.911-16.328-25.659-24.492a249.868,249.868,0,0,1-23.326-26.242c-4.082-5.248-7.581-11.08-11.663-16.911,1.166-4.665,1.166-5.248,1.166-6.415" transform="translate(25.963 8.214)" fill="#f7b34c"/><path d="M468.39,33.192c-9.331-2.333-18.078-4.665-27.408-7S422.9,21.529,413.573,19.78s-18.661-3.5-27.991-4.665-19.244-1.749-28.575-2.916a227.885,227.885,0,0,0-28.575-1.749c-9.33,0-18.661-.583-27.991,0-8.747,0-18.661,0-27.991,1.166-9.331.583-18.661,1.749-27.991,2.916-9.331,1.749-18.661,2.333-27.991,4.665-9.33,1.749-18.661,3.5-27.991,5.832s-18.078,4.665-27.408,7.581-18.078,5.832-27.408,9.33l-26.242,10.5A206.912,206.912,0,0,0,81.759,64.683C73.011,68.765,64.847,73.43,56.1,76.929c1.166-.583,1.749-1.749,2.916-2.333C71.262,68.765,82.925,62.35,95.171,56.519l15.745-7c12.829-5.832,25.659-9.914,39.071-14.579a353.026,353.026,0,0,1,42.57-11.663c11.08-2.916,22.743-4.665,34.406-6.415,9.33-1.749,18.661-2.916,28.574-4.082,4.082-2.333,8.747-2.333,13.413-2.333L288.2,8.7h46.069c6.415,0,13.413.583,19.827,1.166,9.33.583,18.078,2.333,27.408,3.5,10.5,1.166,20.41,2.333,30.324,4.665,14.579,2.916,28.574,5.832,42.57,10.5,2.916,1.166,6.415,1.749,9.914,2.916,1.166.583,2.916.583,4.082,1.166v.583" transform="translate(249.98 0)" fill="#f6b159"/><g transform="translate(332.174 394.294)"><path d="M257.828,89.854c-1.166-5.248-5.248-10.5-13.412-12.829-8.164-2.916-20.41-3.5-37.322,1.749A243.834,243.834,0,0,0,168.022,94.52C151.694,102.1,133.616,112.6,116.7,123.094A423.943,423.943,0,0,0,75.3,154c-9.914,9.33-15.745,15.745-14.579,17.495s9.33-1.166,20.994-6.415c12.246-5.248,27.991-12.829,45.486-19.827s35.572-14,51.9-19.244,30.324-9.33,38.488-11.663c16.328-4.665,27.408-7.581,33.24-11.663C257.828,98.6,258.995,95.1,257.828,89.854Z" transform="translate(-60.575 -74.822)" fill="#f29100"/></g><g transform="translate(353.204 641.748)"><path d="M292.889,132.092c-1.166-5.248-5.831-10.5-14.579-12.829-8.747-2.916-22.743-2.916-41.987,1.749-9.914,2.333-26.242,7.581-45.486,15.745a472.57,472.57,0,0,0-60.065,29.158c-19.244,11.08-36.739,22.743-48.985,32.657a25.353,25.353,0,0,0-4.082,3.5l-3.5,3.5L68.375,211.4c-2.916,3.5-4.665,5.248-4.082,6.415s2.916.583,7-.583a65.4,65.4,0,0,0,7.581-2.916,40.167,40.167,0,0,1,4.665-1.75l5.248-1.749c14-5.832,32.657-13.413,52.484-20.994s41.4-14.579,60.648-19.827,35.572-9.331,44.9-12.246c19.244-4.665,31.49-8.164,39.071-11.663C291.722,140.839,294.055,137.34,292.889,132.092Z" transform="translate(-64.181 -117.256)" fill="#f29100"/></g><g transform="translate(954.39 419.24)"><path d="M169.18,113.506c-1.166-4.082-2.916-8.747-1.166-13.412s7-8.747,19.244-12.246a253.791,253.791,0,0,1,32.073-5.832A392.664,392.664,0,0,1,265.983,79.1c31.49,0,59.482,4.082,59.482,7.581s-26.825,7-56.566,12.829c-14.579,2.916-30.324,6.415-43.153,9.914-13.412,3.5-24.492,6.415-30.324,8.164-12.246,3.5-18.078,4.665-20.994,3.5C170.929,120.5,170.929,117.588,169.18,113.506Z" transform="translate(-167.273 -79.1)" fill="#006f32"/></g><g transform="translate(357.244 521.717)"><path d="M238.224,114.908c-1.166-5.248-1.749-11.08-6.415-14.579-4.082-3.5-12.246-5.248-26.825-1.749-7.581,1.749-20.994,6.415-36.739,13.413a394.989,394.989,0,0,0-48.985,25.659c-32.074,19.827-56.566,41.987-54.233,45.486s30.907-10.5,64.147-22.743a446.8,446.8,0,0,1,49.568-16.328c15.162-4.665,28.575-7.581,35.572-9.33,14.579-3.5,20.994-5.831,23.909-8.164C240.557,123.073,239.39,120.157,238.224,114.908Z" transform="translate(-64.874 -96.673)" fill="#f29100"/></g><g transform="translate(107.225 527.098)"><path d="M47.659,330.3c-4.665.583-9.33,1.749-14-1.75s-8.747-12.246-10.5-31.49c-.583-4.665-.583-11.663-1.166-19.827,0-8.164,0-18.078.583-28.574,1.166-20.994,3.5-45.486,8.164-68.229a488.074,488.074,0,0,1,15.745-58.9c5.248-15.162,9.914-24.492,11.663-23.909,3.5,1.166-3.5,40.821-5.832,84.557a609.594,609.594,0,0,0,0,65.313c.583,9.914,1.166,19.244,1.749,27.408s1.166,14.579,1.749,19.244a183.87,183.87,0,0,1,1.749,21.577c0,5.248,0,8.164-.583,9.914C55.24,330.3,52.324,329.716,47.659,330.3Z" transform="translate(-22 -97.596)" fill="#006f32"/></g><g transform="translate(557.396 302.026)"><path d="M99.8,123.147c1.166-.583,3.5,0,7.581,2.916q2.624,1.749,7,5.248c2.333,2.333,5.248,4.665,8.164,7.581,11.663,11.663,26.242,30.324,40.821,52.484s28.575,47.819,41.4,74.06c6.415,12.829,12.246,26.242,18.078,38.488a17.456,17.456,0,0,0,2.333,4.665v.583h0l.583.583v.583h0v1.166c0,.583.583,1.166,1.166.583l.583-.583h0l.583-1.166c1.166-4.082,2.332-8.164,4.082-12.829,2.916-8.747,5.248-16.911,8.164-25.659,11.663-34.989,25.076-71.145,39.655-103.218a771.45,771.45,0,0,1,40.238-79.892c2.916-4.665,5.832-9.33,8.164-12.829s4.665-7,6.415-9.331c3.5-5.248,6.415-7.581,7-7.581.583.583,0,4.082-1.75,9.914-1.166,2.916-2.333,6.415-4.082,10.5s-3.5,8.747-5.248,14c-7.581,20.994-18.661,49.568-29.158,81.641C291.077,207.7,280,243.86,271.25,278.849l-7,26.242L255.5,340.08c-4.082,16.328-8.164,32.657-11.663,47.819-3.5,15.745-7.581,30.324-10.5,44.9-7.581-19.244-14-36.155-19.827-51.9-2.333-5.832-4.665-12.246-7-18.078-1.167-2.916-2.333-5.832-3.5-9.33l-3.5-8.747c-2.333-5.831-4.665-12.246-7-18.078-1.749-3.5-2.916-7.581-4.665-11.08-2.332-6.415-5.248-12.829-7.581-19.244-2.916-6.415-5.249-12.829-8.164-19.827-11.08-26.242-22.16-51.9-33.24-74.061s-21.577-41.4-29.158-54.816c-1.749-3.5-3.5-6.415-5.248-9.331a38.341,38.341,0,0,1-3.5-7C99.22,126.646,98.636,123.73,99.8,123.147Z" transform="translate(-99.196 -59)" fill="#006f32"/></g><g transform="translate(4.361 476.179)"><path d="M61.739,457.627c-1.166-2.333,0-5.832,3.5-11.08,3.5-4.665,10.5-11.08,19.827-19.244s22.16-17.495,37.9-29.158c7.581-5.832,16.328-12.829,25.659-19.827,9.33-7.581,19.244-15.745,29.741-25.076,2.333-2.333,5.248-4.665,8.164-7.581,1.749-1.166,2.916-2.916,4.665-4.665l4.665-4.665,10.5-10.5c1.749-1.749,3.5-4.082,5.248-5.831a61.989,61.989,0,0,0,5.248-6.415,290.678,290.678,0,0,0,21.577-29.158c7-11.08,13.413-22.743,18.078-36.155a158.657,158.657,0,0,0,11.08-41.987c1.749-14.579,2.916-30.324.583-44.9a81.87,81.87,0,0,0-5.832-20.41A46.28,46.28,0,0,0,250.68,125.23c-5.248-4.082-11.08-7.581-18.078-9.33a87.541,87.541,0,0,0-21.577-2.916c-15.162,0-30.907,2.916-45.486,7a235.326,235.326,0,0,0-41.4,16.328c-6.415,3.5-12.829,6.415-18.078,10.5-5.832,4.082-11.08,8.164-16.911,11.663Q73.4,169.841,59.406,181.213c-18.078,14-32.073,26.825-40.821,36.739-2.333,2.333-4.082,4.665-5.832,6.415a32.052,32.052,0,0,0-4.082,5.248c-2.333,2.916-3.5,4.665-4.082,4.082-.583,0,0-2.333,1.166-5.832.583-1.75,1.749-3.5,2.916-6.415,1.166-2.333,2.916-4.665,4.665-7.581A179.476,179.476,0,0,1,28.5,194.625c6.415-7,13.413-14.579,22.16-22.743,8.164-8.164,17.495-16.328,27.991-25.076,5.248-4.665,10.5-8.747,16.328-13.413,6.415-4.665,12.829-8.747,19.244-12.829a214.626,214.626,0,0,1,43.737-20.41,178.364,178.364,0,0,1,51.318-11.08,94.821,94.821,0,0,1,28.575,2.333,78.607,78.607,0,0,1,28.575,12.829c8.747,6.415,15.745,15.162,20.994,23.909a149.132,149.132,0,0,1,6.415,14,126.667,126.667,0,0,1,4.082,14C302,174.8,302,192.876,300.249,210.37a232.427,232.427,0,0,1-11.08,50.151,220.2,220.2,0,0,1-19.827,42.57A273.12,273.12,0,0,1,245.432,337.5c-8.164,9.913-15.745,19.244-23.326,26.825-3.5,4.082-7.581,7.581-10.5,10.5a120.1,120.1,0,0,1-9.331,8.747A449.675,449.675,0,0,1,139.3,430.8a437.047,437.047,0,0,1-43.153,23.326c-11.08,4.665-18.661,7-23.909,8.164C65.821,461.126,62.9,459.96,61.739,457.627Z" transform="translate(-4.361 -88.864)" fill="#006f32"/></g><g transform="translate(799.012 282.323)"><path d="M433.788,217.031c2.333,0,5.248,0,7.581,1.749a16.106,16.106,0,0,1,3.5,4.665,8.43,8.43,0,0,1,1.166,4.082,16.145,16.145,0,0,1,.583,5.248c.583,8.164,0,20.41-6.415,39.071a132,132,0,0,1-14.579,30.907c-3.5,5.832-7.581,11.663-12.246,18.078-2.333,2.916-4.665,6.415-7.581,9.33s-5.832,6.415-8.747,9.331a248,248,0,0,1-24.492,20.993c-10.5,7-22.743,14.579-37.322,20.41a85.018,85.018,0,0,1-11.08,4.082l-12.246,3.5c-8.164,1.749-16.911,3.5-26.242,3.5a133,133,0,0,1-57.149-8.747c-19.244-7-37.322-19.827-51.317-35.572a147.838,147.838,0,0,1-30.324-56.566,170.241,170.241,0,0,1-5.248-64.147,198.145,198.145,0,0,1,16.328-61.231c16.911-37.9,45.486-69.4,77.559-88.056A164.651,164.651,0,0,1,284.5,58.413a123.56,123.56,0,0,1,46.069-1.166A197.319,197.319,0,0,1,350.4,61.912c5.831,2.333,11.663,4.082,16.328,7a114.991,114.991,0,0,1,23.326,16.328c11.663,11.08,15.745,18.661,14.579,19.244s-6.415-5.832-18.661-14a119.244,119.244,0,0,0-23.326-12.829,8.289,8.289,0,0,0-3.5-1.166c-1.166-.583-2.333-.583-4.082-1.166-1.166-.583-2.333-.583-4.082-1.166-1.166-.583-2.916-.583-4.082-1.166a167.224,167.224,0,0,0-18.078-2.916,112.525,112.525,0,0,0-19.827,0A131.455,131.455,0,0,0,288,73.575a137.706,137.706,0,0,0-42.57,19.244,174.676,174.676,0,0,0-65.313,81.058,167.311,167.311,0,0,0-12.246,53.65c-1.166,18.078.583,36.739,5.832,53.65a118.58,118.58,0,0,0,25.076,44.32,98.478,98.478,0,0,0,39.655,26.242c14.579,5.248,29.741,6.415,43.737,5.831a114.738,114.738,0,0,0,20.41-3.5c6.415-1.749,12.829-3.5,18.661-6.415,11.663-4.665,21.577-11.08,29.741-16.911,8.164-6.415,15.162-12.246,20.41-18.078a202.577,202.577,0,0,0,24.492-31.49c5.832-9.914,9.914-18.661,13.413-25.659a77.864,77.864,0,0,0,4.082-10.5,70.724,70.724,0,0,0,2.916-8.164c.583-2.333,1.75-4.665,2.333-6.415l1.749-5.248C426.207,212.949,428.54,216.448,433.788,217.031Z" transform="translate(-140.629 -55.621)" fill="#006f32"/></g></g></svg>